<svg xmlns="http://www.w3.org/2000/svg" width="134" height="12" fill="none" viewBox="0 0 134 12"><path fill="#01001f" d="M19.316 2.733q.807 0 1.412.39.616.39.957 1.108.34.705.34 1.702 0 .982-.34 1.713a2.6 2.6 0 0 1-.945 1.108q-.605.39-1.424.39-.768 0-1.347-.378a2 2 0 0 1-.63-.667v3.186h-1.574V2.86h1.537v.979q.215-.426.642-.715.592-.39 1.372-.39m22.794 0q.806 0 1.412.39.616.39.956 1.108.34.705.34 1.702 0 .982-.34 1.713a2.6 2.6 0 0 1-.945 1.108q-.604.39-1.423.39-.768 0-1.347-.378a2 2 0 0 1-.63-.668v3.187h-1.574V2.86h1.536v.979q.215-.426.642-.715.593-.39 1.373-.39m-30.962 0q.956 0 1.662.39.705.39 1.095 1.108.39.72.39 1.702t-.39 1.713q-.39.718-1.095 1.108-.706.39-1.662.39-.958 0-1.664-.39-.705-.39-1.095-1.108-.39-.731-.39-1.713t.39-1.702q.39-.718 1.095-1.108t1.664-.39m22.792 0q.958 0 1.663.39T36.7 4.231q.39.72.39 1.702t-.39 1.713q-.39.718-1.096 1.108-.705.39-1.663.39-.956 0-1.662-.39-.705-.39-1.095-1.108-.39-.731-.391-1.713 0-.983.39-1.702.39-.718 1.096-1.108t1.662-.39m14.985 0q.907 0 1.486.277.592.277.882.844.29.555.29 1.436v3.728h-1.474V8.04a1.68 1.68 0 0 1-.894.928q-.39.176-.895.176a2.75 2.75 0 0 1-1.196-.252 2.17 2.17 0 0 1-.818-.705 1.77 1.77 0 0 1-.29-.996q0-.68.352-1.07.353-.403 1.147-.579.794-.177 2.129-.177h.44v-.264q0-.63-.277-.907-.277-.276-.932-.277-.516 0-1.058.164-.541.15-1.096.479l-.453-1.072q.327-.225.768-.39.453-.175.944-.264.504-.1.945-.1m41.98 0q1.235 0 1.877.466.655.453.654 1.272 0 .58-.39.982a1.6 1.6 0 0 1-.583.366q.24.058.433.163.377.19.566.53.201.327.201.78 0 .845-.742 1.349-.744.503-2.142.503a6.4 6.4 0 0 1-1.574-.189q-.73-.202-1.222-.555l.415-1.032q.442.315 1.072.479t1.271.164q.78 0 1.134-.19a.63.63 0 0 0 .353-.592q0-.364-.252-.553-.252-.202-.769-.202H89.57V5.34h1.487q.453 0 .692-.189a.62.62 0 0 0 .252-.529.61.61 0 0 0-.315-.554q-.302-.201-1.045-.202-.63 0-1.159.152-.528.151-.995.428l-.416-1.008q.517-.34 1.235-.516a6.4 6.4 0 0 1 1.6-.189M1.612 3.904H2.87L5.252.14h1.776L4.377 4.19q.094.042.183.091.427.24.768.63.353.39.617.944L7.481 9.02h-1.75L4.546 6.46q-.303-.654-.73-.932-.417-.277-1.046-.277H1.612v3.767H0V.139h1.612zm27.71 5.115h-1.576V4.094h-2.682v4.925h-1.575v-6.16h5.832zm29.01-4.925h-2.116v4.925h-1.574V4.094h-2.104V2.859h5.794zm2.384 2.876 3.086-4.11h1.31v6.159h-1.423V4.91L60.601 9.02h-1.309v-6.16h1.423zm9.507-4.11q.793 0 1.285.189.504.188.73.554.227.352.227.869 0 .579-.404.982-.239.239-.578.364.254.058.453.165.365.202.554.541.189.328.189.769 0 .794-.605 1.26t-1.75.466h-3.427v-6.16zm5.404 2.38h2.72V2.86h1.575v6.159h-1.574V6.475h-2.721v2.544h-1.574v-6.16h1.574zm20.974 0h2.72V2.86h1.575v6.159H99.32V6.475H96.6v2.544h-1.575v-6.16h1.576zm7.509 1.729 3.086-4.11h1.31v6.16h-1.423V4.91l-3.086 4.108h-1.31v-6.16h1.423zm8.965-1.716h.743V2.859h1.575v2.394h.743l1.776-2.394h1.688l-2.041 2.745q.026.014.05.027.277.15.517.428.24.264.466.668l1.285 2.292h-1.676l-1.032-1.814a1.8 1.8 0 0 0-.328-.441.8.8 0 0 0-.353-.227 1.5 1.5 0 0 0-.466-.062h-.629v2.544h-1.575V6.475h-.63q-.276 0-.478.062a.9.9 0 0 0-.353.227q-.15.15-.315.441L111.01 9.02h-1.688l1.297-2.292q.227-.405.453-.668a2 2 0 0 1 .504-.428q.033-.017.068-.033l-2.045-2.739h1.687zm9.194 0h.893l1.789-2.394h1.688l-2.016 2.76q.013.005.025.012.278.15.504.428.24.264.466.668l1.298 2.292h-1.687l-1.034-1.814a1.8 1.8 0 0 0-.327-.441.8.8 0 0 0-.352-.227 1.5 1.5 0 0 0-.467-.062h-.78v2.544h-1.575v-6.16h1.575zm6.883 1.717 3.086-4.11h1.311v6.159h-1.424V4.91l-3.086 4.108h-1.31v-6.16h1.423zM83.305 9.018H81.73V2.859h1.575zM49.656 6.272q-.591 0-.995.05a2.4 2.4 0 0 0-.655.139.7.7 0 0 0-.353.252.76.76 0 0 0-.1.403q0 .416.289.68.29.265.806.265.416 0 .73-.189.33-.201.517-.542.189-.34.189-.78v-.278zM68.358 8.05h1.827q.517 0 .78-.214.278-.215.278-.63t-.277-.63q-.264-.214-.781-.214h-1.827zm-57.21-4.12q-.706 0-1.134.505-.428.49-.428 1.499 0 .994.428 1.51.428.504 1.134.504.705 0 1.133-.504.428-.516.428-1.51 0-1.008-.428-1.5-.428-.503-1.133-.503m7.728 0q-.705 0-1.134.505-.428.49-.428 1.499 0 .994.428 1.51.429.504 1.134.504t1.134-.504q.427-.516.427-1.51 0-1.008-.427-1.5-.429-.503-1.134-.503m15.064 0q-.705 0-1.132.505-.43.49-.43 1.499.001.994.43 1.51.427.504 1.132.504.706 0 1.134-.504.429-.516.429-1.51 0-1.008-.429-1.5-.427-.503-1.134-.503m7.73 0q-.705 0-1.134.505-.428.49-.429 1.499 0 .994.43 1.51.428.504 1.133.504t1.133-.504q.428-.516.428-1.51 0-1.008-.428-1.5-.428-.503-1.133-.503m26.688 1.463h1.713q.454 0 .706-.203.252-.214.251-.591 0-.377-.25-.567-.253-.201-.707-.202h-1.713zm15.035-3.856h-1.764V0h1.764z"/></svg>