<svg xmlns="http://www.w3.org/2000/svg" width="152" height="23" fill="none" viewBox="0 0 152 23"><path fill="url(#a)" d="M147.612.434a.677.677 0 0 1 1.264 0l.033.081c.154.381.592.545.948.355l.076-.041c.541-.289 1.151.238.969.835l-.026.084a.705.705 0 0 0 .504.898l.084.019c.595.136.733.942.22 1.279l-.073.048a.715.715 0 0 0-.175 1.02l.052.07c.371.497-.028 1.206-.632 1.125l-.085-.012a.69.69 0 0 0-.773.666l-.003.089c-.027.625-.776.905-1.188.444l-.059-.065a.672.672 0 0 0-1.008 0l-.058.065c-.412.461-1.161.181-1.188-.444l-.004-.089a.69.69 0 0 0-.772-.666l-.086.012c-.604.081-1.002-.628-.632-1.125l.053-.07a.715.715 0 0 0-.175-1.02l-.073-.048c-.514-.337-.375-1.143.219-1.28l.085-.018a.705.705 0 0 0 .504-.898l-.026-.084c-.183-.597.428-1.124.968-.835l.077.04c.356.19.793.027.947-.354z"/><path fill="#01001f" d="M19.997 4.53H15.93a.62.62 0 0 0-.617.634v8.842c0 1.368-.764 2.052-2.12 2.052h-5.77c-1.38 0-2.12-.684-2.12-2.052V5.164a.635.635 0 0 0-.617-.633H.616A.62.62 0 0 0 0 5.164v10.844c0 2.635 1.726 4.003 4.39 4.003h15.607a.62.62 0 0 0 .617-.634V5.164a.74.74 0 0 0-.173-.456.76.76 0 0 0-.444-.177M40.558 4.53H24.531a.62.62 0 0 0-.617.634v17.203c0 .354.271.633.616.633h4.07c.32 0 .615-.279.615-.633V20.01h11.343c2.663 0 4.39-1.368 4.39-4.003V8.559c0-2.635-1.727-4.028-4.39-4.028m-1.06 9.628c0 1.368-.765 2.027-2.12 2.027h-6.042c-1.38 0-2.12-.659-2.12-2.027v-3.75c0-1.368.74-2.052 2.12-2.052h6.041c1.356 0 2.12.684 2.12 2.053zM62.393 10.257H53.96c-.641 0-1.011-.203-1.011-.837s.37-.886 1.01-.886h11.417c.173 0 .32-.05.444-.178a.62.62 0 0 0 .173-.456V5.164a.62.62 0 0 0-.173-.456.7.7 0 0 0-.444-.177H51.52c-2.343 0-3.995 1.317-3.995 4.687 0 3.344 1.8 4.662 4.143 4.662h8.531c.74 0 1.16.405 1.16 1.064 0 .633-.445 1.064-1.16 1.064H48.806a.6.6 0 0 0-.443.202.7.7 0 0 0-.173.456v2.711c0 .178.074.33.173.456a.6.6 0 0 0 .443.203h13.587c2.515 0 4.413-1.723 4.413-5.092 0-3.345-1.898-4.687-4.413-4.687M76.868 8.356h5.474c.173 0 .32-.05.444-.177a.62.62 0 0 0 .172-.456V5.164a.62.62 0 0 0-.172-.456.7.7 0 0 0-.444-.177h-7.594V2.758a.62.62 0 0 0-.617-.634h-4.068a.62.62 0 0 0-.617.634v13.224c0 2.66 1.726 4.029 4.39 4.029h8.506c.173 0 .32-.05.444-.178a.62.62 0 0 0 .172-.456V16.82a.62.62 0 0 0-.172-.457.7.7 0 0 0-.444-.177h-5.474c-1.356 0-2.12-.684-2.12-2.027v-3.75c0-1.368.764-2.052 2.12-2.052M99.906 4.53H86.418a.62.62 0 0 0-.616.634V7.9c0 .178.074.33.173.456a.62.62 0 0 0 .443.178H98.55c.641 0 .986.38.986 1.013 0 .634-.345 1.014-.986 1.014h-9.247c-2.885 0-4.117 1.545-4.117 4.712 0 3.192 1.232 4.738 4.117 4.738h14.918c.148 0 .321-.05.419-.178a.64.64 0 0 0 .198-.456v-9.83c0-3.47-1.924-4.89-4.932-5.016m-1.701 12.162h-6.263c-.839 0-1.307-.558-1.307-1.419 0-.836.468-1.393 1.307-1.393h6.263c.937 0 1.331.557 1.331 1.418 0 .836-.394 1.394-1.331 1.394M119.367 4.53h-10.726a.7.7 0 0 0-.444.178.66.66 0 0 0-.172.456v14.213c0 .178.049.33.172.456.124.127.272.203.444.178h4.069c.32 0 .616-.279.616-.634V10.41c0-1.369.74-2.053 2.121-2.053h3.92c.173 0 .321-.05.444-.177a.62.62 0 0 0 .173-.456V5.164a.62.62 0 0 0-.617-.633M136.486 10.257h-8.433c-.641 0-1.011-.203-1.011-.837s.37-.886 1.011-.886h11.417c.172 0 .32-.05.444-.178a.62.62 0 0 0 .172-.456V5.164a.62.62 0 0 0-.172-.456.7.7 0 0 0-.444-.177h-13.858c-2.342 0-3.994 1.317-3.994 4.687 0 3.344 1.8 4.662 4.142 4.662h8.532c.739 0 1.159.405 1.159 1.064 0 .633-.444 1.064-1.159 1.064H122.9a.6.6 0 0 0-.444.202.68.68 0 0 0-.173.456v2.711c0 .178.074.33.173.456a.6.6 0 0 0 .444.203h13.586c2.515 0 4.414-1.723 4.414-5.092 0-3.345-1.899-4.687-4.414-4.687"/><defs><linearGradient id="a" x1="149.822" x2="148.228" y1="1.285" y2="5.849" gradientUnits="userSpaceOnUse"><stop stop-color="#5bfc70"/><stop offset="1" stop-color="#a4fd68"/></linearGradient></defs></svg>