<svg xmlns="http://www.w3.org/2000/svg" width="152" height="23" fill="none"><path fill="url(#a)" d="M147.612.434a.677.677 0 0 1 1.264 0l.033.081c.154.381.592.545.948.355l.076-.041c.541-.289 1.151.238.968.835l-.025.084a.704.704 0 0 0 .504.898l.084.019c.595.136.733.942.219 1.279l-.072.048a.715.715 0 0 0-.175 1.02l.052.07c.371.497-.028 1.206-.632 1.125l-.085-.012a.69.69 0 0 0-.773.666l-.004.089c-.027.625-.776.905-1.187.444l-.059-.065a.672.672 0 0 0-1.008 0l-.058.065c-.412.461-1.161.181-1.188-.444l-.004-.089a.69.69 0 0 0-.773-.666l-.085.012c-.604.081-1.003-.628-.632-1.125l.052-.07a.715.715 0 0 0-.175-1.02l-.072-.048c-.514-.337-.376-1.143.219-1.28l.084-.018a.704.704 0 0 0 .504-.898l-.025-.084c-.183-.597.427-1.124.968-.835l.076.04c.356.19.794.027.948-.354l.033-.081Z"/><path fill="#fff" d="M19.997 4.532H15.93a.62.62 0 0 0-.617.633v8.842c0 1.368-.764 2.052-2.12 2.052h-5.77c-1.38 0-2.12-.684-2.12-2.052V5.165a.635.635 0 0 0-.617-.633H.616A.619.619 0 0 0 0 5.165v10.844c0 2.634 1.726 4.003 4.39 4.003h15.607a.619.619 0 0 0 .617-.634V5.165a.74.74 0 0 0-.173-.456.757.757 0 0 0-.444-.177ZM40.558 4.532H24.531a.619.619 0 0 0-.617.633v17.202c0 .355.271.634.616.634h4.07c.32 0 .615-.279.615-.634v-2.355h11.343c2.663 0 4.39-1.369 4.39-4.003v-7.45c0-2.634-1.727-4.027-4.39-4.027Zm-1.06 9.627c0 1.368-.765 2.027-2.12 2.027h-6.042c-1.38 0-2.12-.659-2.12-2.027v-3.75c0-1.368.74-2.052 2.12-2.052h6.041c1.356 0 2.12.684 2.12 2.052v3.75ZM62.393 10.257H53.96c-.641 0-1.011-.202-1.011-.836 0-.633.37-.886 1.01-.886h11.417c.173 0 .32-.051.444-.178a.62.62 0 0 0 .173-.456V5.165a.62.62 0 0 0-.173-.456.698.698 0 0 0-.444-.177H51.52c-2.343 0-3.995 1.317-3.995 4.687 0 3.344 1.8 4.661 4.143 4.661h8.531c.74 0 1.16.406 1.16 1.064 0 .634-.445 1.065-1.16 1.065H48.806a.61.61 0 0 0-.443.202.686.686 0 0 0-.173.456v2.711c0 .177.074.33.173.456a.61.61 0 0 0 .443.203h13.587c2.515 0 4.413-1.723 4.413-5.093 0-3.344-1.898-4.687-4.413-4.687ZM76.868 8.357h5.474c.173 0 .32-.05.444-.177a.62.62 0 0 0 .172-.456v-2.56a.62.62 0 0 0-.172-.455.699.699 0 0 0-.444-.177h-7.594V2.758a.62.62 0 0 0-.617-.633h-4.069a.619.619 0 0 0-.616.633v13.225c0 2.66 1.726 4.029 4.39 4.029h8.506c.173 0 .32-.051.444-.178a.62.62 0 0 0 .172-.456V16.82a.62.62 0 0 0-.172-.456.699.699 0 0 0-.444-.177h-5.474c-1.356 0-2.12-.684-2.12-2.027v-3.75c0-1.368.764-2.052 2.12-2.052ZM99.906 4.532H86.418a.619.619 0 0 0-.616.633V7.9c0 .178.074.33.173.456a.624.624 0 0 0 .443.178H98.55c.641 0 .986.38.986 1.013 0 .633-.345 1.013-.986 1.013h-9.247c-2.885 0-4.117 1.546-4.117 4.713 0 3.192 1.232 4.738 4.117 4.738h14.918c.148 0 .321-.051.419-.178a.64.64 0 0 0 .198-.456v-9.83c0-3.471-1.924-4.89-4.932-5.016Zm-1.701 12.16h-6.263c-.839 0-1.307-.557-1.307-1.418 0-.836.468-1.394 1.307-1.394h6.263c.937 0 1.331.558 1.331 1.42 0 .835-.394 1.393-1.331 1.393ZM119.367 4.532h-10.726a.702.702 0 0 0-.444.177.661.661 0 0 0-.172.456v14.213c0 .177.049.33.172.456.124.127.272.203.444.178h4.069c.32 0 .616-.28.616-.634V10.41c0-1.368.74-2.052 2.121-2.052h3.92c.173 0 .321-.05.444-.177a.621.621 0 0 0 .173-.456v-2.56a.62.62 0 0 0-.617-.632ZM136.486 10.257h-8.433c-.641 0-1.011-.202-1.011-.836 0-.633.37-.886 1.011-.886h11.417c.172 0 .32-.051.444-.178a.62.62 0 0 0 .172-.456V5.165a.62.62 0 0 0-.172-.456.702.702 0 0 0-.444-.177h-13.858c-2.342 0-3.994 1.317-3.994 4.687 0 3.344 1.8 4.661 4.142 4.661h8.532c.739 0 1.159.406 1.159 1.064 0 .634-.444 1.065-1.159 1.065H122.9a.61.61 0 0 0-.444.202.684.684 0 0 0-.173.456v2.711c0 .177.074.33.173.456a.61.61 0 0 0 .444.203h13.586c2.515 0 4.414-1.723 4.414-5.093 0-3.344-1.899-4.687-4.414-4.687Z"/><defs><linearGradient id="a" x1="149.822" x2="148.228" y1="1.285" y2="5.849" gradientUnits="userSpaceOnUse"><stop stop-color="#5BFC70"/><stop offset="1" stop-color="#A4FD68"/></linearGradient></defs></svg>